<svg xmlns="http://www.w3.org/2000/svg" xmlns:xlink="http://www.w3.org/1999/xlink" width="500" zoomAndPan="magnify" viewBox="0 0 375 374.999991" height="500" preserveAspectRatio="xMidYMid meet" version="1.0"><path fill="#4e3dc4" d="M 156.167969 151.480469 C 155.769531 151.480469 155.375 151.375 155.027344 151.175781 L 144.136719 144.890625 C 143.839844 144.71875 143.570312 144.496094 143.375 144.214844 C 142.792969 143.375 142.847656 142.308594 143.417969 141.546875 C 147.15625 136.566406 151.765625 132.476562 157.125 129.382812 L 161.929688 126.609375 C 162.433594 126.316406 163.011719 126.164062 163.59375 126.164062 C 164.175781 126.164062 164.75 126.316406 165.257812 126.609375 L 178.550781 134.492188 C 179.398438 134.992188 179.386719 136.222656 178.535156 136.714844 L 165.636719 144.125 C 162.671875 145.835938 160.058594 148.046875 157.863281 150.695312 C 157.453125 151.191406 156.832031 151.480469 156.167969 151.480469 Z M 156.167969 151.480469 " fill-opacity="1" fill-rule="nonzero"/><path fill="#5271ff" d="M 150.820312 186.113281 C 150.757812 186.113281 150.691406 186.09375 150.628906 186.058594 L 135.851562 177.53125 C 134.828125 176.941406 134.191406 175.839844 134.191406 174.65625 L 134.191406 169.105469 C 134.191406 162.921875 135.429688 156.882812 137.875 151.15625 C 138.230469 150.316406 139.050781 149.773438 139.960938 149.773438 C 140.359375 149.773438 140.738281 149.878906 141.085938 150.078125 L 152.019531 156.390625 C 152.976562 156.941406 153.398438 158.078125 153.023438 159.089844 C 151.824219 162.3125 151.21875 165.679688 151.21875 169.105469 L 151.21875 185.726562 C 151.214844 185.988281 150.980469 186.113281 150.820312 186.113281 Z M 150.820312 186.113281 " fill-opacity="1" fill-rule="nonzero"/><path fill="#38b6ff" d="M 160.085938 190.992188 C 159.488281 190.992188 158.902344 190.835938 158.382812 190.535156 C 157.839844 190.226562 157.507812 189.640625 157.507812 189.019531 L 157.507812 170.601562 C 157.507812 166.207031 158.675781 161.859375 160.886719 158.03125 C 163.097656 154.207031 166.277344 151.019531 170.085938 148.820312 L 185.4375 139.960938 C 185.992188 139.605469 187.050781 139.410156 187.851562 139.703125 C 188.886719 140.089844 189.492188 141.34375 189.492188 142.558594 L 189.492188 158.222656 C 189.492188 159.457031 188.828125 160.605469 187.753906 161.222656 C 187.613281 161.304688 184.070312 163.320312 182.511719 164.25 C 181.828125 164.660156 179.5 166.152344 178.316406 168.1875 C 177.488281 169.617188 177.082031 171.492188 177.082031 173.917969 L 177.082031 179.699219 C 177.082031 180.933594 176.417969 182.082031 175.347656 182.699219 L 161.777344 190.53125 C 161.265625 190.835938 160.679688 190.992188 160.085938 190.992188 Z M 160.085938 190.992188 " fill-opacity="1" fill-rule="nonzero"/><path fill="#4e3dc4" d="M 267.785156 151.363281 C 267.109375 151.363281 266.472656 151.066406 266.039062 150.542969 C 263.851562 147.910156 261.246094 145.710938 258.296875 144.007812 L 245.324219 136.523438 C 244.246094 135.898438 243.5 134.78125 243.335938 133.535156 C 242.59375 127.957031 241.679688 123.933594 240.375 120.5 C 240.050781 119.027344 240.5625 118.058594 241.953125 117.535156 C 242.441406 117.351562 243 117.261719 243.605469 117.261719 C 245.179688 117.261719 247.078125 117.878906 249.109375 119.050781 L 266.804688 129.265625 C 272.164062 132.359375 276.773438 136.449219 280.511719 141.429688 C 280.902344 141.945312 281.054688 142.609375 280.921875 143.246094 C 280.792969 143.890625 280.40625 144.421875 279.839844 144.75 L 268.902344 151.0625 C 268.566406 151.261719 268.175781 151.363281 267.785156 151.363281 Z M 267.785156 151.363281 " fill-opacity="1" fill-rule="nonzero"/><path fill="#38b6ff" d="M 216.878906 270.382812 C 215.628906 270.382812 214.617188 269.371094 214.617188 268.128906 L 214.617188 255.503906 C 214.617188 254.402344 215.40625 253.464844 216.5 253.28125 C 219.957031 252.695312 222.984375 251.601562 226.03125 249.84375 L 258.296875 231.21875 C 262.664062 228.703125 266.3125 225.046875 268.84375 220.65625 C 271.378906 216.261719 272.71875 211.28125 272.71875 206.238281 L 272.71875 168.988281 C 272.71875 165.585938 272.117188 162.230469 270.929688 159.019531 C 270.546875 157.980469 270.957031 156.824219 271.914062 156.273438 L 282.851562 149.960938 C 283.199219 149.761719 283.574219 149.660156 283.976562 149.660156 C 284.886719 149.660156 285.707031 150.199219 286.0625 151.042969 C 288.507812 156.765625 289.746094 162.804688 289.746094 168.988281 L 289.746094 206.238281 C 289.746094 214.25 287.617188 222.179688 283.582031 229.164062 C 279.550781 236.144531 273.753906 241.953125 266.808594 245.960938 L 234.546875 264.582031 C 229.1875 267.679688 223.335938 269.625 217.160156 270.367188 C 217.0625 270.375 216.96875 270.382812 216.878906 270.382812 Z M 216.878906 270.382812 " fill-opacity="1" fill-rule="nonzero"/><path fill="#5271ff" d="M 263.203125 213.570312 C 262.808594 213.570312 262.417969 213.464844 262.070312 213.265625 L 248 205.144531 C 244.050781 202.863281 244.117188 198.527344 244.136719 197.105469 L 244.140625 196.855469 C 244.144531 192.691406 244.082031 177.839844 244.019531 164.738281 C 243.972656 154.847656 243.933594 146.304688 243.933594 144.007812 C 243.933594 143.796875 244.03125 143.660156 244.113281 143.582031 C 244.226562 143.472656 244.378906 143.410156 244.535156 143.410156 C 244.636719 143.410156 244.738281 143.4375 244.828125 143.492188 L 253.855469 148.703125 C 261.613281 153.183594 266.433594 161.53125 266.433594 170.488281 L 266.433594 204.734375 C 266.433594 207.195312 266.070312 209.644531 265.347656 212.007812 C 265.0625 212.945312 264.199219 213.570312 263.203125 213.570312 Z M 263.203125 213.570312 " fill-opacity="1" fill-rule="nonzero"/><path fill="#5271ff" d="M 205.402344 270.332031 C 205.3125 270.332031 205.21875 270.328125 205.125 270.316406 C 198.941406 269.570312 193.09375 267.621094 187.734375 264.53125 L 169.109375 253.777344 C 166.1875 252.089844 164.242188 250.28125 163.640625 248.691406 C 163.355469 247.941406 163.386719 247.046875 163.714844 246.46875 C 163.894531 246.167969 164.132812 245.988281 164.445312 245.941406 C 167.914062 245.359375 170.199219 244.921875 176.796875 242.664062 C 177.902344 242.285156 179.035156 242.09375 180.15625 242.09375 C 182.484375 242.09375 184.34375 242.898438 185.492188 243.578125 L 196.25 249.785156 C 199.199219 251.488281 202.40625 252.648438 205.78125 253.222656 C 206.875 253.410156 207.664062 254.34375 207.664062 255.445312 L 207.664062 268.070312 C 207.664062 268.675781 207.429688 269.246094 206.996094 269.671875 C 206.566406 270.097656 206.003906 270.332031 205.402344 270.332031 Z M 205.402344 270.332031 " fill-opacity="1" fill-rule="nonzero"/><path fill="#4e3dc4" d="M 211.738281 246.558594 C 207.089844 246.558594 202.742188 245.410156 199.804688 243.414062 C 197.582031 241.902344 195.210938 239.808594 195.210938 234.070312 L 194.921875 220.8125 C 194.921875 219.367188 196.226562 219.328125 196.375 219.328125 C 196.628906 219.328125 196.871094 219.382812 197.070312 219.488281 L 207.886719 225.730469 C 209.101562 226.433594 210.410156 226.785156 211.773438 226.785156 C 213.230469 226.785156 214.691406 226.375 216.125 225.566406 C 220.492188 223.097656 226.996094 219.316406 233.285156 215.664062 C 236.046875 214.058594 238.742188 212.492188 241.164062 211.09375 C 242.050781 210.585938 243.058594 210.3125 244.082031 210.3125 C 245.101562 210.3125 246.113281 210.582031 246.996094 211.089844 L 259.316406 218.207031 C 259.925781 218.554688 260.328125 219.148438 260.433594 219.84375 C 260.53125 220.515625 260.328125 221.179688 259.867188 221.671875 C 258.179688 223.476562 256.238281 225.019531 254.105469 226.25 L 224.441406 243.371094 C 220.878906 245.425781 216.367188 246.558594 211.738281 246.558594 Z M 211.738281 246.558594 " fill-opacity="1" fill-rule="nonzero"/><path fill="#5271ff" d="M 156.136719 223.941406 C 156.335938 224.285156 156.441406 224.679688 156.441406 225.082031 L 156.441406 237.652344 C 156.441406 237.992188 156.382812 238.339844 156.234375 238.648438 C 155.796875 239.574219 154.847656 240.0625 153.902344 239.945312 C 147.722656 239.203125 141.871094 237.253906 136.515625 234.160156 L 131.707031 231.386719 C 131.203125 231.09375 130.78125 230.675781 130.488281 230.167969 C 130.195312 229.660156 130.042969 229.089844 130.042969 228.507812 L 130.222656 213.054688 C 130.234375 212.066406 131.304688 211.460938 132.15625 211.953125 L 145.023438 219.417969 C 147.988281 221.128906 151.210938 222.285156 154.601562 222.863281 C 155.246094 222.972656 155.804688 223.367188 156.136719 223.941406 Z M 156.136719 223.941406 " fill-opacity="1" fill-rule="nonzero"/><path fill="#38b6ff" d="M 188.808594 211.257812 C 188.84375 211.3125 188.855469 211.378906 188.855469 211.453125 L 188.855469 228.511719 C 188.855469 229.691406 188.21875 230.792969 187.195312 231.390625 L 182.386719 234.164062 C 177.03125 237.257812 171.179688 239.207031 165 239.949219 C 164.09375 240.058594 163.214844 239.621094 162.757812 238.832031 C 162.558594 238.488281 162.457031 238.113281 162.457031 237.707031 L 162.457031 225.085938 C 162.457031 223.980469 163.230469 223.050781 164.296875 222.871094 C 167.6875 222.296875 170.910156 221.136719 173.875 219.425781 L 188.269531 211.113281 C 188.503906 210.976562 188.730469 211.117188 188.808594 211.257812 Z M 188.808594 211.257812 " fill-opacity="1" fill-rule="nonzero"/><path fill="#4e3dc4" d="M 188.402344 200.792969 C 188.703125 201.3125 188.859375 201.898438 188.859375 202.496094 C 188.859375 203.121094 188.527344 203.699219 187.984375 204.011719 L 172.035156 213.21875 C 168.230469 215.414062 163.878906 216.578125 159.453125 216.578125 C 155.03125 216.578125 150.679688 215.414062 146.875 213.21875 L 131.527344 204.355469 C 130.9375 204.054688 130.238281 203.230469 130.097656 202.390625 C 129.910156 201.300781 130.695312 200.148438 131.75 199.542969 L 145.320312 191.710938 C 146.390625 191.09375 147.71875 191.09375 148.785156 191.710938 C 148.929688 191.796875 152.445312 193.851562 154.027344 194.734375 C 154.726562 195.125 157.183594 196.394531 159.539062 196.398438 C 161.191406 196.402344 163.019531 195.8125 165.121094 194.597656 L 170.128906 191.707031 C 171.199219 191.089844 172.53125 191.089844 173.597656 191.707031 L 187.167969 199.539062 C 187.675781 199.851562 188.105469 200.28125 188.402344 200.792969 Z M 188.402344 200.792969 " fill-opacity="1" fill-rule="nonzero"/><path fill="#5271ff" d="M 100.226562 127.351562 C 100.5625 127.941406 100.621094 128.640625 100.386719 129.277344 C 99.199219 132.488281 98.597656 135.84375 98.597656 139.246094 L 98.597656 154.222656 C 98.597656 155.472656 98.003906 156.667969 97.003906 157.4375 C 92.542969 160.867188 89.511719 163.667969 87.191406 166.515625 C 86.082031 167.539062 84.984375 167.578125 83.835938 166.632812 C 83.433594 166.300781 83.074219 165.867188 82.773438 165.34375 C 81.984375 163.980469 81.570312 162.023438 81.570312 159.683594 L 81.570312 139.246094 C 81.570312 133.0625 82.8125 127.023438 85.253906 121.300781 C 85.507812 120.699219 86.007812 120.238281 86.625 120.035156 C 87.246094 119.828125 87.898438 119.894531 88.46875 120.21875 L 99.402344 126.53125 C 99.746094 126.730469 100.03125 127.015625 100.226562 127.351562 Z M 100.226562 127.351562 " fill-opacity="1" fill-rule="nonzero"/><path fill="#4e3dc4" d="M 228.773438 111.925781 C 229.398438 113.007812 229.027344 114.390625 227.949219 115.015625 L 217.011719 121.324219 C 216.054688 121.878906 214.851562 121.660156 214.144531 120.804688 C 211.910156 118.105469 209.453125 116.027344 206.402344 114.269531 L 174.136719 95.644531 C 169.773438 93.121094 164.785156 91.789062 159.710938 91.789062 C 154.644531 91.789062 149.65625 93.121094 145.289062 95.644531 L 113.023438 114.269531 C 110.074219 115.972656 107.472656 118.171875 105.28125 120.804688 C 104.574219 121.65625 103.367188 121.875 102.414062 121.324219 L 91.480469 115.015625 C 91.132812 114.816406 90.855469 114.539062 90.65625 114.191406 C 90.199219 113.40625 90.261719 112.421875 90.808594 111.691406 C 94.546875 106.714844 99.15625 102.621094 104.515625 99.53125 L 136.777344 80.90625 C 143.722656 76.898438 151.652344 74.78125 159.714844 74.78125 C 167.78125 74.78125 175.714844 76.902344 182.652344 80.90625 L 214.914062 99.53125 C 220.273438 102.621094 224.882812 106.714844 228.621094 111.691406 C 228.679688 111.769531 228.726562 111.847656 228.773438 111.925781 Z M 228.773438 111.925781 " fill-opacity="1" fill-rule="nonzero"/><path fill="#38b6ff" d="M 156.402344 100.222656 C 156.597656 100.5625 156.703125 100.953125 156.703125 101.355469 L 156.703125 117.597656 C 156.703125 122.160156 152.917969 124.269531 151.675781 124.960938 L 151.460938 125.085938 C 147.851562 127.160156 135.019531 134.648438 123.699219 141.246094 C 115.152344 146.234375 107.769531 150.539062 105.78125 151.6875 C 105.597656 151.789062 105.433594 151.773438 105.324219 151.742188 C 105.175781 151.703125 105.039062 151.597656 104.964844 151.46875 C 104.914062 151.378906 104.886719 151.28125 104.886719 151.167969 L 104.886719 140.75 C 104.886719 131.792969 109.707031 123.441406 117.46875 118.964844 L 147.128906 101.839844 C 149.257812 100.609375 151.5625 99.703125 153.972656 99.144531 C 154.929688 98.921875 155.90625 99.359375 156.402344 100.222656 Z M 156.402344 100.222656 " fill-opacity="1" fill-rule="nonzero"/><path fill="#38b6ff" d="M 234.46875 121.886719 C 234.515625 121.96875 234.558594 122.046875 234.597656 122.136719 C 237.039062 127.859375 238.277344 133.898438 238.277344 140.085938 L 238.277344 161.589844 C 238.277344 164.964844 237.6875 167.550781 236.609375 168.867188 C 236.097656 169.488281 235.308594 169.910156 234.644531 169.910156 C 234.296875 169.910156 234.023438 169.792969 233.820312 169.546875 C 231.582031 166.835938 230.0625 165.078125 224.8125 160.488281 C 223.929688 159.71875 223.199219 158.839844 222.636719 157.867188 C 221.476562 155.851562 221.246094 153.835938 221.253906 152.5 L 221.253906 140.085938 C 221.253906 136.679688 220.652344 133.324219 219.464844 130.113281 C 219.082031 129.074219 219.492188 127.917969 220.449219 127.367188 L 231.386719 121.058594 C 231.910156 120.753906 232.523438 120.671875 233.105469 120.835938 C 233.683594 120.996094 234.167969 121.367188 234.46875 121.886719 Z M 234.46875 121.886719 " fill-opacity="1" fill-rule="nonzero"/><path fill="#5271ff" d="M 210.710938 128.289062 C 213.035156 132.3125 214.214844 136.652344 213.953125 140.191406 C 213.753906 142.871094 213.121094 145.96875 208.152344 148.839844 L 196.8125 155.722656 C 195.5625 156.445312 194.875 155.332031 194.796875 155.207031 C 194.671875 154.988281 194.597656 154.75 194.589844 154.523438 L 194.589844 142.039062 C 194.589844 140.636719 194.246094 139.324219 193.5625 138.144531 C 192.835938 136.886719 191.746094 135.828125 190.328125 134.988281 C 186.003906 132.445312 179.480469 128.699219 173.171875 125.082031 C 170.402344 123.492188 167.695312 121.941406 165.277344 120.546875 C 164.390625 120.035156 163.652344 119.296875 163.136719 118.410156 C 162.625 117.527344 162.355469 116.519531 162.355469 115.496094 L 162.355469 101.273438 C 162.355469 100.574219 162.671875 99.925781 163.222656 99.488281 C 163.75 99.066406 164.429688 98.914062 165.082031 99.0625 C 167.492188 99.621094 169.796875 100.527344 171.929688 101.761719 L 201.59375 118.882812 C 205.160156 120.9375 208.394531 124.277344 210.710938 128.289062 Z M 210.710938 128.289062 " fill-opacity="1" fill-rule="nonzero"/><path fill="#38b6ff" d="M 219.097656 187.136719 C 219.296875 186.792969 219.585938 186.503906 219.929688 186.304688 L 230.820312 180.019531 C 231.117188 179.847656 231.445312 179.726562 231.789062 179.699219 C 232.808594 179.613281 233.707031 180.191406 234.082031 181.066406 C 236.523438 186.792969 237.765625 192.832031 237.765625 199.015625 L 237.765625 204.566406 C 237.765625 205.152344 237.609375 205.722656 237.320312 206.230469 C 237.027344 206.738281 236.609375 207.15625 236.101562 207.449219 L 222.625 215.015625 C 221.765625 215.5 220.707031 214.875 220.710938 213.890625 L 220.742188 199.015625 C 220.742188 195.597656 220.132812 192.226562 218.9375 189 C 218.707031 188.394531 218.765625 187.714844 219.097656 187.136719 Z M 219.097656 187.136719 " fill-opacity="1" fill-rule="nonzero"/><path fill="#4e3dc4" d="M 191.773438 165.191406 C 191.804688 165.136719 191.851562 165.089844 191.914062 165.054688 L 206.691406 156.523438 C 207.714844 155.933594 208.992188 155.933594 210.011719 156.523438 L 214.820312 159.300781 C 220.175781 162.394531 224.789062 166.488281 228.523438 171.460938 C 229.074219 172.191406 229.132812 173.175781 228.679688 173.960938 C 228.480469 174.308594 228.203125 174.578125 227.851562 174.785156 L 216.921875 181.09375 C 215.964844 181.648438 214.769531 181.445312 214.082031 180.613281 C 211.890625 177.960938 209.273438 175.75 206.308594 174.039062 L 191.914062 165.726562 C 191.683594 165.597656 191.695312 165.328125 191.773438 165.191406 Z M 191.773438 165.191406 " fill-opacity="1" fill-rule="nonzero"/><path fill="#5271ff" d="M 182.917969 170.773438 C 183.214844 170.257812 183.644531 169.828125 184.160156 169.53125 C 184.703125 169.21875 185.375 169.21875 185.910156 169.53125 L 201.863281 178.738281 C 205.667969 180.933594 208.851562 184.121094 211.0625 187.953125 C 213.277344 191.78125 214.445312 196.128906 214.445312 200.523438 L 214.445312 218.238281 C 214.472656 218.898438 214.113281 219.914062 213.457031 220.457031 C 212.605469 221.164062 211.214844 221.058594 210.164062 220.457031 L 196.59375 212.621094 C 195.523438 212.003906 194.859375 210.851562 194.859375 209.621094 C 194.859375 209.457031 194.886719 205.382812 194.859375 203.570312 C 194.847656 202.773438 194.71875 200.007812 193.546875 197.96875 C 192.722656 196.535156 191.300781 195.25 189.195312 194.039062 L 184.1875 191.144531 C 183.117188 190.527344 182.453125 189.375 182.453125 188.144531 L 182.453125 172.480469 C 182.460938 171.878906 182.617188 171.289062 182.917969 170.773438 Z M 182.917969 170.773438 " fill-opacity="1" fill-rule="nonzero"/><path fill="#38b6ff" d="M 163.390625 283.839844 C 163.726562 283.253906 164.308594 282.855469 164.976562 282.738281 C 168.351562 282.164062 171.558594 281.007812 174.507812 279.304688 L 187.480469 271.816406 C 188.558594 271.195312 189.898438 271.109375 191.058594 271.589844 C 196.261719 273.738281 200.199219 274.960938 203.824219 275.542969 C 205.265625 275.996094 205.847656 276.929688 205.605469 278.394531 C 205.519531 278.90625 205.320312 279.433594 205.015625 279.960938 C 204.230469 281.324219 202.742188 282.660156 200.714844 283.828125 L 183.015625 294.046875 C 177.660156 297.140625 171.808594 299.085938 165.628906 299.832031 C 164.984375 299.910156 164.335938 299.707031 163.847656 299.277344 C 163.355469 298.84375 163.085938 298.246094 163.085938 297.589844 L 163.085938 284.964844 C 163.089844 284.566406 163.195312 284.179688 163.390625 283.839844 Z M 163.390625 283.839844 " fill-opacity="1" fill-rule="nonzero"/><path fill="#5271ff" d="M 85.753906 180.25 C 86.375 179.171875 87.761719 178.800781 88.839844 179.421875 L 99.777344 185.734375 C 100.730469 186.285156 101.148438 187.4375 100.757812 188.476562 C 99.539062 191.761719 98.96875 194.929688 98.96875 198.449219 L 98.96875 235.695312 C 98.96875 240.738281 100.308594 245.722656 102.84375 250.113281 C 105.378906 254.503906 109.027344 258.15625 113.394531 260.675781 L 145.65625 279.300781 C 148.605469 281.003906 151.8125 282.160156 155.1875 282.734375 C 156.28125 282.921875 157.074219 283.855469 157.074219 284.957031 L 157.074219 297.582031 C 157.074219 297.984375 156.972656 298.359375 156.773438 298.707031 C 156.316406 299.492188 155.4375 299.933594 154.535156 299.824219 C 148.351562 299.074219 142.503906 297.128906 137.148438 294.039062 L 104.882812 275.414062 C 97.941406 271.40625 92.140625 265.601562 88.109375 258.617188 C 84.078125 251.632812 81.945312 243.710938 81.945312 235.695312 L 81.945312 198.449219 C 81.945312 192.261719 83.1875 186.222656 85.628906 180.5 C 85.664062 180.414062 85.707031 180.332031 85.753906 180.25 Z M 85.753906 180.25 " fill-opacity="1" fill-rule="nonzero"/><path fill="#4e3dc4" d="M 111.800781 248.769531 C 111.996094 248.429688 112.285156 248.140625 112.632812 247.941406 L 126.703125 239.820312 C 130.652344 237.539062 134.375 239.761719 135.597656 240.492188 L 135.8125 240.617188 C 139.417969 242.707031 152.3125 250.070312 163.695312 256.570312 C 172.285156 261.476562 179.707031 265.714844 181.695312 266.863281 C 181.878906 266.96875 181.949219 267.121094 181.976562 267.234375 C 182.015625 267.386719 181.992188 267.550781 181.914062 267.679688 C 181.863281 267.769531 181.789062 267.84375 181.695312 267.898438 L 172.671875 273.105469 C 164.910156 277.585938 155.273438 277.585938 147.511719 273.105469 L 117.847656 255.984375 C 115.714844 254.75 113.777344 253.210938 112.085938 251.40625 C 111.410156 250.6875 111.300781 249.632812 111.800781 248.769531 Z M 111.800781 248.769531 " fill-opacity="1" fill-rule="nonzero"/><path fill="#4e3dc4" d="M 91.53125 170.339844 C 91.578125 170.261719 91.628906 170.183594 91.683594 170.105469 C 95.421875 165.128906 100.035156 161.035156 105.390625 157.945312 L 124.019531 147.191406 C 126.941406 145.503906 129.476562 144.726562 131.152344 145 C 131.949219 145.128906 132.707031 145.601562 133.039062 146.171875 C 133.214844 146.476562 133.246094 146.769531 133.132812 147.066406 C 131.902344 150.363281 131.140625 152.558594 129.796875 159.394531 C 129.570312 160.542969 129.171875 161.617188 128.609375 162.589844 C 127.449219 164.605469 125.816406 165.8125 124.65625 166.472656 L 113.898438 172.679688 C 110.949219 174.378906 108.347656 176.582031 106.160156 179.214844 C 105.449219 180.066406 104.242188 180.285156 103.289062 179.734375 L 92.351562 173.425781 C 91.828125 173.121094 91.453125 172.628906 91.300781 172.046875 C 91.152344 171.464844 91.230469 170.859375 91.53125 170.339844 Z M 91.53125 170.339844 " fill-opacity="1" fill-rule="nonzero"/><path fill="#38b6ff" d="M 108.957031 187.714844 C 111.28125 183.691406 114.449219 180.5 117.648438 178.957031 C 120.066406 177.789062 123.066406 176.785156 128.039062 179.652344 L 139.667969 186.027344 C 140.917969 186.75 140.300781 187.902344 140.226562 188.03125 C 140.101562 188.25 139.929688 188.433594 139.738281 188.550781 L 128.921875 194.792969 C 127.707031 195.496094 126.746094 196.449219 126.066406 197.628906 C 125.339844 198.890625 124.964844 200.363281 124.949219 202.007812 C 124.90625 207.023438 124.925781 214.542969 124.945312 221.816406 C 124.953125 225.007812 124.960938 228.128906 124.964844 230.921875 C 124.964844 231.945312 124.695312 232.953125 124.183594 233.839844 C 123.671875 234.722656 122.933594 235.460938 122.046875 235.972656 L 109.726562 243.085938 C 109.117188 243.4375 108.402344 243.492188 107.75 243.234375 C 107.117188 242.984375 106.640625 242.472656 106.445312 241.832031 C 105.726562 239.46875 105.363281 237.019531 105.363281 234.554688 L 105.363281 200.3125 C 105.367188 196.195312 106.640625 191.722656 108.957031 187.714844 Z M 108.957031 187.714844 " fill-opacity="1" fill-rule="nonzero"/></svg>